<?xml version="1.0" encoding="UTF-8"?>
<!DOCTYPE svg PUBLIC "-//W3C//DTD SVG 1.1//EN" "http://www.w3.org/Graphics/SVG/1.1/DTD/svg11.dtd">
<svg xmlns="http://www.w3.org/2000/svg" version="1.1" width="3001px" height="9000px" style="shape-rendering:geometricPrecision; text-rendering:geometricPrecision; image-rendering:optimizeQuality; fill-rule:evenodd; clip-rule:evenodd" xmlns:xlink="http://www.w3.org/1999/xlink">
<g><path style="opacity:0.994" fill="#fefffe" d="M 484.5,206.5 C 550.325,206.307 597.492,235.641 626,294.5C 628.8,302.7 631.133,311.033 633,319.5C 634.393,350.813 634.893,382.146 634.5,413.5C 652.269,413.229 669.936,414.396 687.5,417C 695.752,420.918 701.585,427.084 705,435.5C 707.813,481.112 708.98,526.778 708.5,572.5C 708.98,618.222 707.814,663.888 705,709.5C 699.797,721.011 690.963,727.511 678.5,729C 558.833,729.667 439.167,729.667 319.5,729C 306.471,728.317 297.638,721.817 293,709.5C 289.538,620.187 288.872,530.854 291,441.5C 293.406,430.092 299.906,421.925 310.5,417C 327.059,414.38 343.726,413.213 360.5,413.5C 360.739,406.633 360.405,399.8 359.5,393C 360.306,371.853 360.806,350.687 361,329.5C 374.13,260.203 415.296,219.203 484.5,206.5 Z M 482.5,261.5 C 531.232,259.1 563.732,280.766 580,326.5C 581.342,356.149 581.842,385.816 581.5,415.5C 525.5,415.5 469.5,415.5 413.5,415.5C 413.088,386.808 413.588,358.141 415,329.5C 424.322,293.678 446.822,271.012 482.5,261.5 Z"/></g>
<g><path style="opacity:0.949" fill="#fefffe" d="M 257.5,1259.5 C 262.215,1259.51 266.882,1260.01 271.5,1261C 279.249,1264.14 286.916,1267.47 294.5,1271C 332.282,1274.64 363.449,1290.81 388,1319.5C 397.314,1334.16 408.148,1347.66 420.5,1360C 436.851,1368.21 454.184,1372.87 472.5,1374C 483.833,1374.67 495.167,1374.67 506.5,1374C 529.454,1369.51 552.454,1365.18 575.5,1361C 599.418,1358.05 623.084,1359.39 646.5,1365C 680.14,1383.63 709.306,1407.79 734,1437.5C 741.18,1454.07 744.513,1471.4 744,1489.5C 744.811,1509.19 744.478,1528.85 743,1548.5C 742.187,1554.94 740.187,1560.94 737,1566.5C 734.757,1568.28 732.257,1568.78 729.5,1568C 723.926,1563.42 719.426,1557.92 716,1551.5C 710.684,1529.57 705.684,1507.57 701,1485.5C 698.776,1479.94 695.109,1475.61 690,1472.5C 695.548,1517.43 700.882,1562.43 706,1607.5C 708.121,1627.79 709.121,1648.12 709,1668.5C 704.619,1681.53 697.786,1693.03 688.5,1703C 674.346,1712.3 661.18,1711.13 649,1699.5C 646.656,1693.37 645.989,1687.04 647,1680.5C 651.509,1671.32 656.842,1662.66 663,1654.5C 666.865,1630.33 662.698,1607.66 650.5,1586.5C 648.271,1585.42 645.937,1584.76 643.5,1584.5C 641.309,1592.57 638.809,1600.57 636,1608.5C 633.608,1627.86 629.608,1646.86 624,1665.5C 617.047,1677.46 608.213,1687.96 597.5,1697C 578.644,1704.24 566.644,1698.24 561.5,1679C 563.773,1668.94 568.94,1660.78 577,1654.5C 592.998,1630.51 597.664,1604.51 591,1576.5C 587.194,1554.42 580.194,1533.42 570,1513.5C 566.744,1511.57 563.244,1511.07 559.5,1512C 543.968,1520.18 527.634,1526.18 510.5,1530C 482.888,1532.75 455.221,1534.75 427.5,1536C 426.421,1536.96 425.255,1537.79 424,1538.5C 423.006,1579.62 424.839,1620.62 429.5,1661.5C 429.215,1678.23 422.881,1692.06 410.5,1703C 395.017,1705.66 379.517,1708.16 364,1710.5C 346.602,1709.76 339.602,1700.76 343,1683.5C 349.769,1676.07 355.769,1668.07 361,1659.5C 363.228,1651.97 363.895,1644.3 363,1636.5C 358.564,1618.32 354.898,1599.99 352,1581.5C 346.928,1565.62 342.262,1549.62 338,1533.5C 329.752,1521 323.085,1507.67 318,1493.5C 315.187,1474.18 312.52,1454.85 310,1435.5C 304.378,1418.35 299.378,1401.01 295,1383.5C 294.167,1381.33 292.667,1379.83 290.5,1379C 287.5,1378.33 284.5,1378.33 281.5,1379C 269.861,1386.64 260.194,1396.31 252.5,1408C 229.131,1417.56 212.631,1410.73 203,1387.5C 202.123,1380.75 202.456,1374.08 204,1367.5C 217.449,1342.94 230.116,1317.94 242,1292.5C 241.288,1278.6 246.454,1267.6 257.5,1259.5 Z"/></g>
<g><path style="opacity:0.952" fill="#fefffe" d="M 1477.5,1294.5 C 1570.1,1290.52 1638.26,1328.86 1682,1409.5C 1686.22,1422.17 1691.22,1434.51 1697,1446.5C 1700.83,1451 1704.67,1455.5 1708.5,1460C 1713.12,1462.95 1717.45,1466.28 1721.5,1470C 1752.96,1483.15 1783.63,1497.81 1813.5,1514C 1828.77,1522.93 1842.6,1533.76 1855,1546.5C 1876.85,1573.26 1871.68,1593.09 1839.5,1606C 1815.49,1613.75 1790.82,1618.08 1765.5,1619C 1742.49,1619.77 1719.49,1619.6 1696.5,1618.5C 1677.9,1619.05 1661.57,1625.22 1647.5,1637C 1611.73,1675.83 1567.39,1697.5 1514.5,1702C 1451.22,1706.25 1396.72,1686.75 1351,1643.5C 1343.02,1634.51 1335.35,1625.17 1328,1615.5C 1323.92,1608.33 1319.58,1601.33 1315,1594.5C 1309.1,1579.7 1302.93,1565.04 1296.5,1550.5C 1289.02,1539.93 1279.69,1531.43 1268.5,1525C 1228.85,1509.85 1191.52,1490.51 1156.5,1467C 1145.24,1458.07 1135.74,1447.57 1128,1435.5C 1122.58,1420.66 1126.08,1408.5 1138.5,1399C 1143.83,1396.33 1149.17,1393.67 1154.5,1391C 1179.87,1383.11 1205.87,1378.77 1232.5,1378C 1255.84,1377.86 1279.17,1377.86 1302.5,1378C 1322.65,1376.76 1338.98,1368.43 1351.5,1353C 1360.49,1345.02 1369.83,1337.35 1379.5,1330C 1409.43,1310.3 1442.09,1298.47 1477.5,1294.5 Z M 1493.5,1379.5 C 1547.69,1381.56 1585.86,1407.22 1608,1456.5C 1616.64,1484.5 1616.64,1512.5 1608,1540.5C 1606.15,1545.69 1603.65,1550.53 1600.5,1555C 1599.5,1555.5 1598.5,1556 1597.5,1556.5C 1543.97,1555.21 1491.3,1546.71 1439.5,1531C 1428.74,1526.55 1417.74,1522.55 1406.5,1519C 1397.44,1514.93 1388.44,1510.76 1379.5,1506.5C 1376.82,1472.16 1387.16,1442.49 1410.5,1417.5C 1433.36,1394.24 1461.03,1381.57 1493.5,1379.5 Z"/></g>
</svg>
