<?xml version="1.0" encoding="UTF-8"?>
<!DOCTYPE svg PUBLIC "-//W3C//DTD SVG 1.1//EN" "http://www.w3.org/Graphics/SVG/1.1/DTD/svg11.dtd">
<svg xmlns="http://www.w3.org/2000/svg" version="1.1" width="2000px" height="2476px" style="shape-rendering:geometricPrecision; text-rendering:geometricPrecision; image-rendering:optimizeQuality; fill-rule:evenodd; clip-rule:evenodd" xmlns:xlink="http://www.w3.org/1999/xlink">
<g><path style="opacity:1" fill="#cb4f20" d="M 1408.5,241.5 C 1399.41,274.939 1390.41,308.439 1381.5,342C 1390.15,349.31 1398.81,356.643 1407.5,364C 1423.69,374.262 1439.36,385.262 1454.5,397C 1590.73,514.567 1673.06,662.734 1701.5,841.5C 1735.5,841.5 1769.5,841.5 1803.5,841.5C 1810.67,904.433 1811.34,967.433 1805.5,1030.5C 1808.83,1030.5 1812.17,1030.5 1815.5,1030.5C 1788.25,1035.85 1765.41,1049.18 1747,1070.5C 1729.52,1090.78 1714.52,1112.78 1702,1136.5C 1665.23,1212.86 1642.06,1293.53 1632.5,1378.5C 1630.78,1385.94 1629.78,1393.6 1629.5,1401.5C 1628.33,1414.81 1627.17,1428.14 1626,1441.5C 1625.33,1471.17 1625.33,1500.83 1626,1530.5C 1626.47,1546.56 1627.64,1562.56 1629.5,1578.5C 1634.16,1627.31 1647.32,1673.65 1669,1717.5C 1676.67,1730.5 1685.84,1742.34 1696.5,1753C 1707.55,1762.69 1720.22,1768.86 1734.5,1771.5C 1698.47,1771.95 1662.47,1771.45 1626.5,1770C 1607.25,1763.09 1591.75,1751.26 1580,1734.5C 1576.82,1729.47 1573.66,1724.47 1570.5,1719.5C 1570.4,1716.89 1571.07,1714.56 1572.5,1712.5C 1573.08,1709.67 1574.41,1707.34 1576.5,1705.5C 1579.42,1703.35 1581.08,1700.35 1581.5,1696.5C 1594.79,1672.05 1604.12,1646.05 1609.5,1618.5C 1611.77,1613.55 1612.77,1608.22 1612.5,1602.5C 1613.73,1595 1614.73,1587.34 1615.5,1579.5C 1616.66,1566.67 1616.83,1553.67 1616,1540.5C 1615.87,1531.88 1614.7,1523.55 1612.5,1515.5C 1612.5,1509.21 1611.5,1503.21 1609.5,1497.5C 1608.97,1491.39 1607.81,1485.39 1606,1479.5C 1605.56,1476.6 1604.4,1474.27 1602.5,1472.5C 1600.08,1464.65 1597.41,1456.99 1594.5,1449.5C 1593.92,1446.05 1592.58,1443.05 1590.5,1440.5C 1577.26,1410.37 1559.26,1383.37 1536.5,1359.5C 1536.33,1355.82 1536.5,1352.15 1537,1348.5C 1540.68,1329.5 1544.18,1310.5 1547.5,1291.5C 1549.4,1286.89 1550.73,1281.89 1551.5,1276.5C 1555.92,1255.6 1561.92,1235.26 1569.5,1215.5C 1571.81,1211.92 1573.14,1207.92 1573.5,1203.5C 1582.66,1177.85 1593.49,1152.85 1606,1128.5C 1617.08,1108.03 1630.42,1089.03 1646,1071.5C 1677.62,894.621 1645.29,730.621 1549,579.5C 1482.73,481.056 1396.9,404.723 1291.5,350.5C 1290.29,349.726 1290.29,348.893 1291.5,348C 1145.55,278.592 993.554,261.592 835.5,297C 799.237,306.199 763.903,318.199 729.5,333C 728.216,333.684 727.049,333.517 726,332.5C 674.364,357.224 625.531,386.391 579.5,420C 561.419,435.74 543.586,451.907 526,468.5C 525.667,468.167 525.333,467.833 525,467.5C 474.719,517.138 432.719,573.138 399,635.5C 398,636.167 397,636.833 396,637.5C 382.127,662.981 371.96,689.648 365.5,717.5C 325.765,826.753 315.265,938.753 334,1053.5C 351.891,1068.95 367.224,1086.62 380,1106.5C 393.572,1128.98 405.572,1152.31 416,1176.5C 424.128,1197.39 431.628,1218.39 438.5,1239.5C 438.335,1242.52 438.502,1245.52 439,1248.5C 449.952,1284.56 457.785,1321.23 462.5,1358.5C 442.63,1379.71 426.296,1403.37 413.5,1429.5C 411.755,1431.03 410.755,1433.03 410.5,1435.5C 405.297,1444.93 401.297,1454.93 398.5,1465.5C 397.883,1465.61 397.383,1465.94 397,1466.5C 395.026,1472.06 393.526,1477.73 392.5,1483.5C 392.5,1484.17 392.5,1484.83 392.5,1485.5C 390.11,1490.45 388.776,1495.79 388.5,1501.5C 388.5,1501.83 388.5,1502.17 388.5,1502.5C 385.999,1509.83 384.666,1517.5 384.5,1525.5C 384.5,1526.17 384.5,1526.83 384.5,1527.5C 383.067,1537.8 382.401,1548.3 382.5,1559C 382.5,1565.34 382.834,1571.51 383.5,1577.5C 383.5,1579.83 383.5,1582.17 383.5,1584.5C 383.362,1589.41 384.028,1594.08 385.5,1598.5C 385.717,1602.71 386.383,1606.71 387.5,1610.5C 387.294,1613.5 387.96,1616.16 389.5,1618.5C 393.099,1634.14 397.432,1649.64 402.5,1665C 408.262,1677.89 414.596,1690.39 421.5,1702.5C 424.214,1707.93 426.881,1713.26 429.5,1718.5C 418.91,1736.6 404.91,1751.77 387.5,1764C 380.191,1767.58 372.524,1769.74 364.5,1770.5C 343.14,1769.84 322.14,1770.51 301.5,1772.5C 287.656,1772.83 273.99,1772.5 260.5,1771.5C 280.141,1768.76 296.641,1760.1 310,1745.5C 330.715,1719.74 345.382,1690.74 354,1658.5C 360.975,1632.17 366.142,1605.51 369.5,1578.5C 372.723,1547.76 374.056,1516.93 373.5,1486C 373.333,1471.17 373.167,1456.33 373,1441.5C 371.833,1428.14 370.666,1414.81 369.5,1401.5C 369.222,1393.6 368.222,1385.94 366.5,1378.5C 356.936,1293.52 333.769,1212.86 297,1136.5C 282.319,1108.82 264.153,1083.65 242.5,1061C 232.912,1052.08 222.245,1044.74 210.5,1039C 200.103,1033.92 189.103,1031.42 177.5,1031.5C 171.651,968.096 172.318,904.763 179.5,841.5C 213.5,841.5 247.5,841.5 281.5,841.5C 307.485,677.008 380.152,537.508 499.5,423C 535.622,389.861 574.289,360.194 615.5,334C 605.948,300.622 596.948,267.122 588.5,233.5C 731.289,153.308 884.622,118.475 1048.5,129C 1177.52,138.409 1297.52,175.909 1408.5,241.5 Z"/></g>
<g><path style="opacity:0.994" fill="#ea6a23" d="M 588.5,233.5 C 596.948,267.122 605.948,300.622 615.5,334C 574.289,360.194 535.622,389.861 499.5,423C 380.152,537.508 307.485,677.008 281.5,841.5C 247.5,841.5 213.5,841.5 179.5,841.5C 211.006,622.237 312.006,443.07 482.5,304C 516,277.75 551.333,254.25 588.5,233.5 Z"/></g>
<g><path style="opacity:0.994" fill="#ea6a23" d="M 1408.5,241.5 C 1578.24,343.439 1696.74,487.772 1764,674.5C 1782.96,728.802 1796.13,784.468 1803.5,841.5C 1769.5,841.5 1735.5,841.5 1701.5,841.5C 1673.06,662.734 1590.73,514.567 1454.5,397C 1439.36,385.262 1423.69,374.262 1407.5,364C 1398.81,356.643 1390.15,349.31 1381.5,342C 1390.41,308.439 1399.41,274.939 1408.5,241.5 Z"/></g>
<g><path style="opacity:1" fill="#000000" d="M 1573.5,1203.5 C 1571.19,1207.08 1569.86,1211.08 1569.5,1215.5C 1561.92,1235.26 1555.92,1255.6 1551.5,1276.5C 1549.76,1280.04 1548.43,1283.71 1547.5,1287.5C 1554.84,1156.27 1557.67,1024.94 1556,893.5C 1555.17,877.488 1554.17,861.488 1553,845.5C 1551.35,832.566 1547.68,820.233 1542,808.5C 1536.99,798.477 1528.99,792.81 1518,791.5C 1514.36,791.713 1510.86,792.547 1507.5,794C 1406.36,846.905 1302.36,893.239 1195.5,933C 1121.33,960.458 1045.67,982.791 968.5,1000C 961.833,1000.67 955.167,1000.67 948.5,1000C 947.446,998.612 947.28,997.112 948,995.5C 983.37,957.132 1018.37,918.466 1053,879.5C 1059.05,872.452 1064.72,865.119 1070,857.5C 1071.95,854.745 1073.12,851.745 1073.5,848.5C 1070.58,848.46 1067.91,849.293 1065.5,851C 874.636,962.962 669.636,1036.29 450.5,1071C 444.917,1127 440.917,1183.17 438.5,1239.5C 431.628,1218.39 424.128,1197.39 416,1176.5C 405.572,1152.31 393.572,1128.98 380,1106.5C 367.224,1086.62 351.891,1068.95 334,1053.5C 315.265,938.753 325.765,826.753 365.5,717.5C 371.96,689.648 382.127,662.981 396,637.5C 397,636.833 398,636.167 399,635.5C 432.719,573.138 474.719,517.138 525,467.5C 525.333,467.833 525.667,468.167 526,468.5C 543.586,451.907 561.419,435.74 579.5,420C 625.531,386.391 674.364,357.224 726,332.5C 727.049,333.517 728.216,333.684 729.5,333C 763.903,318.199 799.237,306.199 835.5,297C 993.554,261.592 1145.55,278.592 1291.5,348C 1290.29,348.893 1290.29,349.726 1291.5,350.5C 1396.9,404.723 1482.73,481.056 1549,579.5C 1645.29,730.621 1677.62,894.621 1646,1071.5C 1630.42,1089.03 1617.08,1108.03 1606,1128.5C 1593.49,1152.85 1582.66,1177.85 1573.5,1203.5 Z"/></g>
<g><path style="opacity:1" fill="#d2d2d2" d="M 1547.5,1287.5 C 1547.5,1288.83 1547.5,1290.17 1547.5,1291.5C 1544.18,1310.5 1540.68,1329.5 1537,1348.5C 1536.5,1352.15 1536.33,1355.82 1536.5,1359.5C 1480.05,1302.46 1411.38,1272.29 1330.5,1269C 1116.17,1268.5 901.834,1268.33 687.5,1268.5C 671.979,1267.2 656.312,1267.36 640.5,1269C 637.543,1269.28 634.877,1270.11 632.5,1271.5C 625.536,1271.91 618.87,1273.25 612.5,1275.5C 607.813,1275.55 603.479,1276.55 599.5,1278.5C 553.776,1289.69 513.776,1311.36 479.5,1343.5C 475.9,1345.43 472.9,1348.1 470.5,1351.5C 467.833,1353.83 465.167,1356.17 462.5,1358.5C 457.785,1321.23 449.952,1284.56 439,1248.5C 438.502,1245.52 438.335,1242.52 438.5,1239.5C 440.917,1183.17 444.917,1127 450.5,1071C 669.636,1036.29 874.636,962.962 1065.5,851C 1067.91,849.293 1070.58,848.46 1073.5,848.5C 1073.12,851.745 1071.95,854.745 1070,857.5C 1064.72,865.119 1059.05,872.452 1053,879.5C 1018.37,918.466 983.37,957.132 948,995.5C 947.28,997.112 947.446,998.612 948.5,1000C 955.167,1000.67 961.833,1000.67 968.5,1000C 1045.67,982.791 1121.33,960.458 1195.5,933C 1302.36,893.239 1406.36,846.905 1507.5,794C 1510.86,792.547 1514.36,791.713 1518,791.5C 1528.99,792.81 1536.99,798.477 1542,808.5C 1547.68,820.233 1551.35,832.566 1553,845.5C 1554.17,861.488 1555.17,877.488 1556,893.5C 1557.67,1024.94 1554.84,1156.27 1547.5,1287.5 Z"/></g>
<g><path style="opacity:0.998" fill="#feb000" d="M 1815.5,1030.5 C 1817.17,1030.5 1818.83,1030.5 1820.5,1030.5C 1820.33,1033.8 1821,1034.13 1822.5,1031.5C 1881.69,1124.55 1940.36,1217.89 1998.5,1311.5C 1917.36,1339.07 1840.36,1375.24 1767.5,1420C 1734.67,1441.03 1704.51,1465.53 1677,1493.5C 1660.86,1511 1647.86,1530.66 1638,1552.5C 1634.62,1561.13 1631.79,1569.79 1629.5,1578.5C 1627.64,1562.56 1626.47,1546.56 1626,1530.5C 1625.33,1500.83 1625.33,1471.17 1626,1441.5C 1627.17,1428.14 1628.33,1414.81 1629.5,1401.5C 1631.22,1394.06 1632.22,1386.4 1632.5,1378.5C 1642.06,1293.53 1665.23,1212.86 1702,1136.5C 1714.52,1112.78 1729.52,1090.78 1747,1070.5C 1765.41,1049.18 1788.25,1035.85 1815.5,1030.5 Z"/></g>
<g><path style="opacity:0.998" fill="#feb000" d="M 177.5,1031.5 C 189.103,1031.42 200.103,1033.92 210.5,1039C 222.245,1044.74 232.912,1052.08 242.5,1061C 264.153,1083.65 282.319,1108.82 297,1136.5C 333.769,1212.86 356.936,1293.52 366.5,1378.5C 366.778,1386.4 367.778,1394.06 369.5,1401.5C 370.666,1414.81 371.833,1428.14 373,1441.5C 373.167,1456.33 373.333,1471.17 373.5,1486C 374.056,1516.93 372.723,1547.76 369.5,1578.5C 362.981,1554.13 352.148,1531.79 337,1511.5C 315.68,1484.84 291.18,1461.68 263.5,1442C 204.797,1401.3 142.131,1367.3 75.5,1340C 50.7443,1329.8 25.7443,1320.3 0.5,1311.5C 58.5614,1218.39 116.895,1125.39 175.5,1032.5C 175.957,1031.7 176.624,1031.37 177.5,1031.5 Z"/></g>
<g><path style="opacity:1" fill="#853112" d="M 1573.5,1203.5 C 1573.14,1207.92 1571.81,1211.92 1569.5,1215.5C 1569.86,1211.08 1571.19,1207.08 1573.5,1203.5 Z"/></g>
<g><path style="opacity:1" fill="#aeafb1" d="M 687.5,1268.5 C 673.437,1268.44 659.437,1269.11 645.5,1270.5C 641.131,1270.47 636.798,1270.8 632.5,1271.5C 634.877,1270.11 637.543,1269.28 640.5,1269C 656.312,1267.36 671.979,1267.2 687.5,1268.5 Z"/></g>
<g><path style="opacity:1" fill="#103142" d="M 687.5,1268.5 C 901.834,1268.33 1116.17,1268.5 1330.5,1269C 1411.38,1272.29 1480.05,1302.46 1536.5,1359.5C 1559.26,1383.37 1577.26,1410.37 1590.5,1440.5C 1591.08,1443.95 1592.42,1446.95 1594.5,1449.5C 1597.41,1456.99 1600.08,1464.65 1602.5,1472.5C 1604.97,1480.9 1607.31,1489.24 1609.5,1497.5C 1609.58,1503.78 1610.58,1509.78 1612.5,1515.5C 1614.91,1536.75 1615.91,1558.09 1615.5,1579.5C 1614.73,1587.34 1613.73,1595 1612.5,1602.5C 1611.09,1607.63 1610.09,1612.96 1609.5,1618.5C 1604.12,1646.05 1594.79,1672.05 1581.5,1696.5C 1579.08,1699.01 1577.41,1702.01 1576.5,1705.5C 1574.41,1707.34 1573.08,1709.67 1572.5,1712.5C 1570.02,1713.69 1569.02,1715.69 1569.5,1718.5C 1541.49,1759.51 1505.82,1792.18 1462.5,1816.5C 1457.6,1818.29 1452.93,1820.62 1448.5,1823.5C 1447.83,1824.95 1447.16,1826.28 1446.5,1827.5C 1446.5,1826.17 1446.5,1824.83 1446.5,1823.5C 1437.72,1826.14 1429.22,1829.47 1421,1833.5C 1412.03,1836.11 1403.19,1838.78 1394.5,1841.5C 1385.66,1842.93 1377,1844.6 1368.5,1846.5C 1352.7,1847.92 1336.87,1848.92 1321,1849.5C 1307.8,1848.83 1294.64,1847.83 1281.5,1846.5C 1274.98,1845.06 1268.31,1843.73 1261.5,1842.5C 1163.66,1817.99 1094.99,1759.32 1055.5,1666.5C 1054.01,1660.88 1052.01,1655.55 1049.5,1650.5C 1039.66,1619.79 1034.66,1588.13 1034.5,1555.5C 1036.25,1547.07 1036.91,1538.4 1036.5,1529.5C 1036.5,1528.17 1036.5,1526.83 1036.5,1525.5C 1037.97,1521.08 1038.64,1516.41 1038.5,1511.5C 1039.22,1509.24 1039.55,1506.9 1039.5,1504.5C 1040.12,1504.39 1040.62,1504.06 1041,1503.5C 1042.16,1498.88 1042.99,1494.21 1043.5,1489.5C 1043.57,1486.57 1044.23,1483.91 1045.5,1481.5C 1047.72,1475.35 1049.72,1469.02 1051.5,1462.5C 1055.57,1451.81 1059.73,1441.14 1064,1430.5C 1067.91,1422.77 1072.41,1415.44 1077.5,1408.5C 1058.17,1382.92 1032.34,1369.92 1000,1369.5C 972.644,1369.61 949.311,1379.28 930,1398.5C 927.097,1401.73 924.597,1405.23 922.5,1409C 938.235,1435.37 949.568,1463.53 956.5,1493.5C 956.627,1498.15 957.627,1502.48 959.5,1506.5C 959.5,1506.83 959.5,1507.17 959.5,1507.5C 959.527,1513.05 960.194,1518.38 961.5,1523.5C 961.79,1530.02 962.457,1536.35 963.5,1542.5C 963.5,1543.5 963.5,1544.5 963.5,1545.5C 963.262,1558.5 962.928,1571.5 962.5,1584.5C 958.153,1632.71 942.986,1677.04 917,1717.5C 908.815,1728.56 900.648,1739.56 892.5,1750.5C 886.434,1755.56 881.101,1761.23 876.5,1767.5C 875.833,1767.5 875.5,1767.83 875.5,1768.5C 869.531,1773.13 863.864,1778.13 858.5,1783.5C 825.049,1809.89 787.716,1828.89 746.5,1840.5C 736.356,1842.4 726.356,1844.4 716.5,1846.5C 702.365,1847.89 688.198,1848.89 674,1849.5C 659.784,1849.09 645.618,1848.09 631.5,1846.5C 587.18,1839.72 546.68,1824.05 510,1799.5C 509.502,1802.48 509.335,1805.48 509.5,1808.5C 508.834,1805.31 508.167,1801.98 507.5,1798.5C 476.365,1776.7 450.365,1750.03 429.5,1718.5C 426.881,1713.26 424.214,1707.93 421.5,1702.5C 414.596,1690.39 408.262,1677.89 402.5,1665C 397.432,1649.64 393.099,1634.14 389.5,1618.5C 389.435,1615.57 388.768,1612.91 387.5,1610.5C 387.802,1606.21 387.136,1602.21 385.5,1598.5C 385.877,1593.55 385.211,1588.88 383.5,1584.5C 383.5,1582.17 383.5,1579.83 383.5,1577.5C 383.542,1560.83 383.875,1544.16 384.5,1527.5C 384.5,1526.83 384.5,1526.17 384.5,1525.5C 386.353,1518.05 387.687,1510.38 388.5,1502.5C 388.5,1502.17 388.5,1501.83 388.5,1501.5C 390.288,1496.41 391.621,1491.08 392.5,1485.5C 392.5,1484.83 392.5,1484.17 392.5,1483.5C 394.794,1477.69 396.794,1471.69 398.5,1465.5C 401.297,1454.93 405.297,1444.93 410.5,1435.5C 412.245,1433.97 413.245,1431.97 413.5,1429.5C 426.296,1403.37 442.63,1379.71 462.5,1358.5C 465.167,1356.17 467.833,1353.83 470.5,1351.5C 474.1,1349.57 477.1,1346.9 479.5,1343.5C 513.776,1311.36 553.776,1289.69 599.5,1278.5C 604.124,1278.24 608.458,1277.24 612.5,1275.5C 623.648,1273.93 634.648,1272.26 645.5,1270.5C 659.437,1269.11 673.437,1268.44 687.5,1268.5 Z"/></g>
<g><path style="opacity:1" fill="#515c65" d="M 645.5,1270.5 C 634.648,1272.26 623.648,1273.93 612.5,1275.5C 618.87,1273.25 625.536,1271.91 632.5,1271.5C 636.798,1270.8 641.131,1270.47 645.5,1270.5 Z"/></g>
<g><path style="opacity:1" fill="#606970" d="M 612.5,1275.5 C 608.458,1277.24 604.124,1278.24 599.5,1278.5C 603.479,1276.55 607.813,1275.55 612.5,1275.5 Z"/></g>
<g><path style="opacity:1" fill="#802f12" d="M 1551.5,1276.5 C 1550.73,1281.89 1549.4,1286.89 1547.5,1291.5C 1547.5,1290.17 1547.5,1288.83 1547.5,1287.5C 1548.43,1283.71 1549.76,1280.04 1551.5,1276.5 Z"/></g>
<g><path style="opacity:1" fill="#010202" d="M 661.5,1294.5 C 760.667,1294.79 838.834,1335.12 896,1415.5C 953.295,1513.07 952.295,1610.07 893,1706.5C 839.162,1781.01 765.996,1820.35 673.5,1824.5C 570.115,1820.18 492.615,1773.52 441,1684.5C 394.739,1592.76 398.073,1503.1 451,1415.5C 501.763,1341.6 571.929,1301.27 661.5,1294.5 Z"/></g>
<g><path style="opacity:1" fill="#010202" d="M 1311.5,1294.5 C 1413.94,1294.3 1493.78,1336.3 1551,1420.5C 1605.43,1517.58 1603.1,1613.25 1544,1707.5C 1496.55,1774 1432.05,1812.5 1350.5,1823C 1239.38,1828.53 1154.55,1784.36 1096,1690.5C 1045.5,1594.58 1049.16,1500.92 1107,1409.5C 1157.34,1339.58 1225.5,1301.25 1311.5,1294.5 Z"/></g>
<g><path style="opacity:1" fill="#d1d1d1" d="M 890.5,1301.5 C 962.332,1300.33 1034.33,1300.17 1106.5,1301C 1064.89,1332.4 1018.22,1343.73 966.5,1335C 938.519,1329.5 913.186,1318.34 890.5,1301.5 Z"/></g>
<g><path style="opacity:1" fill="#ea6b23" d="M 0.5,1311.5 C 25.7443,1320.3 50.7443,1329.8 75.5,1340C 142.131,1367.3 204.797,1401.3 263.5,1442C 291.18,1461.68 315.68,1484.84 337,1511.5C 352.148,1531.79 362.981,1554.13 369.5,1578.5C 366.142,1605.51 360.975,1632.17 354,1658.5C 345.382,1690.74 330.715,1719.74 310,1745.5C 296.641,1760.1 280.141,1768.76 260.5,1771.5C 234.833,1747.5 209.167,1723.5 183.5,1699.5C 162.161,1678.83 140.495,1658.49 118.5,1638.5C 103.193,1624.19 87.8595,1609.86 72.5,1595.5C 63.4138,1585.81 53.7471,1576.81 43.5,1568.5C 39.2033,1563.7 34.7033,1559.04 30,1554.5C 19.755,1473.54 9.92164,1392.54 0.5,1311.5 Z"/></g>
<g><path style="opacity:1" fill="#eb6b23" d="M 1998.5,1311.5 C 1989.08,1392.54 1979.25,1473.54 1969,1554.5C 1900.5,1619 1832,1683.5 1763.5,1748C 1760.55,1750.44 1758.22,1753.27 1756.5,1756.5C 1750.52,1760.84 1744.86,1765.68 1739.5,1771C 1737.87,1771.49 1736.2,1771.66 1734.5,1771.5C 1720.22,1768.86 1707.55,1762.69 1696.5,1753C 1685.84,1742.34 1676.67,1730.5 1669,1717.5C 1647.32,1673.65 1634.16,1627.31 1629.5,1578.5C 1631.79,1569.79 1634.62,1561.13 1638,1552.5C 1647.86,1530.66 1660.86,1511 1677,1493.5C 1704.51,1465.53 1734.67,1441.03 1767.5,1420C 1840.36,1375.24 1917.36,1339.07 1998.5,1311.5 Z"/></g>
<g><path style="opacity:1" fill="#828282" d="M 689.5,1319.5 C 677.179,1318.4 664.846,1318.4 652.5,1319.5C 650.5,1319.5 648.5,1319.5 646.5,1319.5C 654.787,1318.05 663.287,1317.38 672,1317.5C 677.167,1317.67 682.333,1317.83 687.5,1318C 688.416,1318.28 689.082,1318.78 689.5,1319.5 Z"/></g>
<g><path style="opacity:1" fill="#4d91a6" d="M 1323.5,1319.5 C 1332.05,1319.29 1340.38,1319.96 1348.5,1321.5C 1340.49,1321.27 1332.49,1320.94 1324.5,1320.5C 1323.83,1320.5 1323.5,1320.17 1323.5,1319.5 Z"/></g>
<g><path style="opacity:1" fill="#6c6c6c" d="M 646.5,1319.5 C 642.1,1321.1 637.434,1321.77 632.5,1321.5C 636.919,1320.03 641.586,1319.36 646.5,1319.5 Z"/></g>
<g><path style="opacity:1" fill="#aaaaaa" d="M 1323.5,1319.5 C 1307.92,1320.55 1292.26,1321.88 1276.5,1323.5C 1276.92,1322.78 1277.58,1322.28 1278.5,1322C 1288.62,1321.49 1298.62,1320.15 1308.5,1318C 1313.17,1317.33 1317.83,1317.33 1322.5,1318C 1323.06,1318.38 1323.39,1318.88 1323.5,1319.5 Z"/></g>
<g><path style="opacity:1" fill="#6b6b6b" d="M 632.5,1321.5 C 630.343,1322.41 628.01,1323.07 625.5,1323.5C 625.611,1322.88 625.944,1322.38 626.5,1322C 628.473,1321.5 630.473,1321.34 632.5,1321.5 Z"/></g>
<g><path style="opacity:1" fill="#0ed2f9" d="M 1324.5,1320.5 C 1332.49,1320.94 1340.49,1321.27 1348.5,1321.5C 1356.65,1323.19 1364.99,1324.52 1373.5,1325.5C 1373.8,1326.15 1374.14,1326.82 1374.5,1327.5C 1379.81,1328.39 1385.15,1329.05 1390.5,1329.5C 1396.37,1332.12 1402.37,1334.12 1408.5,1335.5C 1406.47,1335.34 1404.47,1335.5 1402.5,1336C 1387.97,1350.7 1373.3,1365.2 1358.5,1379.5C 1357.83,1377.83 1357.17,1376.17 1356.5,1374.5C 1348.88,1354.58 1338.21,1336.58 1324.5,1320.5 Z"/></g>
<g><path style="opacity:1" fill="#17d0f6" d="M 690.5,1320.5 C 695.076,1320.44 699.409,1321.1 703.5,1322.5C 712.634,1324.58 721.967,1326.25 731.5,1327.5C 739.49,1329.08 747.157,1331.41 754.5,1334.5C 754.5,1334.83 754.5,1335.17 754.5,1335.5C 753.127,1335.34 751.793,1335.51 750.5,1336C 740.298,1346.37 729.965,1356.54 719.5,1366.5C 712.205,1349.57 702.538,1334.23 690.5,1320.5 Z"/></g>
<g><path style="opacity:1" fill="#41879d" d="M 703.5,1322.5 C 713.143,1323.11 722.476,1324.77 731.5,1327.5C 721.967,1326.25 712.634,1324.58 703.5,1322.5 Z"/></g>
<g><path style="opacity:1" fill="#428aa0" d="M 1348.5,1321.5 C 1357.14,1321.73 1365.47,1323.07 1373.5,1325.5C 1364.99,1324.52 1356.65,1323.19 1348.5,1321.5 Z"/></g>
<g><path style="opacity:1" fill="#e8f7fd" d="M 689.5,1319.5 C 690.167,1319.5 690.5,1319.83 690.5,1320.5C 702.538,1334.23 712.205,1349.57 719.5,1366.5C 721.396,1370.3 722.73,1374.3 723.5,1378.5C 657.941,1362.65 599.608,1376.48 548.5,1420C 513.88,1452.4 493.38,1492.24 487,1539.5C 484.947,1553.21 485.114,1566.87 487.5,1580.5C 467.82,1569.82 450.486,1556.15 435.5,1539.5C 435.5,1538.83 435.167,1538.5 434.5,1538.5C 433.957,1537.26 433.623,1535.92 433.5,1534.5C 434.508,1526.8 435.674,1519.14 437,1511.5C 438.293,1503.47 440.46,1495.8 443.5,1488.5C 446.108,1481.95 449.275,1475.62 453,1469.5C 453.497,1467.19 453.663,1464.86 453.5,1462.5C 454.367,1459.09 455.533,1455.76 457,1452.5C 457.377,1451.06 458.21,1450.06 459.5,1449.5C 462.608,1446.57 464.775,1442.91 466,1438.5C 467.205,1437.93 468.372,1437.26 469.5,1436.5C 473.777,1429.56 478.444,1422.89 483.5,1416.5C 485.758,1412.5 487.758,1408.5 489.5,1404.5C 491.113,1402.73 493.113,1401.56 495.5,1401C 504.481,1392.23 512.815,1383.07 520.5,1373.5C 521.847,1374.03 523.181,1374.19 524.5,1374C 531.25,1367.92 538.583,1362.59 546.5,1358C 548.539,1356.07 550.206,1353.91 551.5,1351.5C 553.527,1351.66 555.527,1351.5 557.5,1351C 586.934,1335.14 618.268,1325.14 651.5,1321C 652.056,1320.62 652.389,1320.12 652.5,1319.5C 664.846,1318.4 677.179,1318.4 689.5,1319.5 Z"/></g>
<g><path style="opacity:1" fill="#3fa2bd" d="M 1373.5,1325.5 C 1379.52,1325.83 1385.18,1327.17 1390.5,1329.5C 1385.15,1329.05 1379.81,1328.39 1374.5,1327.5C 1374.14,1326.82 1373.8,1326.15 1373.5,1325.5 Z"/></g>
<g><path style="opacity:1" fill="#9d9d9d" d="M 601.5,1329.5 C 596.915,1332.14 591.915,1333.81 586.5,1334.5C 591.233,1332.26 596.233,1330.59 601.5,1329.5 Z"/></g>
<g><path style="opacity:1" fill="#d8d9d9" d="M 646.5,1319.5 C 648.5,1319.5 650.5,1319.5 652.5,1319.5C 652.389,1320.12 652.056,1320.62 651.5,1321C 618.268,1325.14 586.934,1335.14 557.5,1351C 555.527,1351.5 553.527,1351.66 551.5,1351.5C 562.412,1344.52 574.079,1338.85 586.5,1334.5C 591.915,1333.81 596.915,1332.14 601.5,1329.5C 609.054,1326.23 617.054,1324.23 625.5,1323.5C 628.01,1323.07 630.343,1322.41 632.5,1321.5C 637.434,1321.77 642.1,1321.1 646.5,1319.5 Z"/></g>
<g><path style="opacity:1" fill="#49ebfe" d="M 754.5,1335.5 C 757.112,1336.37 759.779,1337.04 762.5,1337.5C 764.701,1339.42 767.368,1340.75 770.5,1341.5C 770.833,1341.5 771.167,1341.5 771.5,1341.5C 773.176,1343.83 775.509,1344.83 778.5,1344.5C 790.064,1349.95 801.064,1356.45 811.5,1364C 821.998,1372.33 832.331,1380.83 842.5,1389.5C 843.757,1392.43 845.757,1394.76 848.5,1396.5C 849.419,1399.09 851.086,1401.09 853.5,1402.5C 866.019,1415 876.019,1429.33 883.5,1445.5C 884.365,1449.29 886.032,1452.62 888.5,1455.5C 889.342,1458.15 889.842,1460.82 890,1463.5C 785.419,1567.08 681.253,1670.91 577.5,1775C 573.484,1774.51 569.484,1773.67 565.5,1772.5C 560.671,1770.92 556.338,1768.59 552.5,1765.5C 550.408,1761.45 547.075,1759.45 542.5,1759.5C 536.549,1755.55 530.882,1751.22 525.5,1746.5C 524.415,1744.41 522.749,1743.08 520.5,1742.5C 519.089,1740.09 517.089,1738.42 514.5,1737.5C 513.5,1737.17 512.833,1736.5 512.5,1735.5C 509.743,1731.74 506.41,1728.74 502.5,1726.5C 485.473,1707.97 470.973,1687.64 459,1665.5C 455.922,1658.68 453.422,1651.68 451.5,1644.5C 451.221,1641.88 450.554,1639.38 449.5,1637C 466.314,1620.35 482.981,1603.52 499.5,1586.5C 559.995,1609.49 616.328,1601.99 668.5,1564C 720.334,1519.85 740.5,1464.01 729,1396.5C 727.764,1390.2 725.93,1384.2 723.5,1378.5C 722.73,1374.3 721.396,1370.3 719.5,1366.5C 729.965,1356.54 740.298,1346.37 750.5,1336C 751.793,1335.51 753.127,1335.34 754.5,1335.5 Z"/></g>
<g><path style="opacity:1" fill="#49ebfe" d="M 1408.5,1335.5 C 1410.21,1336.74 1412.21,1337.41 1414.5,1337.5C 1416.85,1339.34 1419.52,1340.68 1422.5,1341.5C 1422.83,1341.5 1423.17,1341.5 1423.5,1341.5C 1425.09,1343.82 1427.42,1344.82 1430.5,1344.5C 1437.14,1348.11 1443.8,1351.78 1450.5,1355.5C 1452.22,1359.21 1455.22,1361.21 1459.5,1361.5C 1493.82,1384.8 1520.15,1414.8 1538.5,1451.5C 1539.67,1455.48 1540.51,1459.48 1541,1463.5C 1436.92,1568.08 1332.42,1672.08 1227.5,1775.5C 1225.56,1774.85 1223.56,1774.52 1221.5,1774.5C 1215.14,1771.98 1209.14,1768.98 1203.5,1765.5C 1189.72,1757.28 1177.05,1747.61 1165.5,1736.5C 1163.43,1733.43 1160.76,1731.09 1157.5,1729.5C 1154.87,1727.37 1152.37,1725.04 1150,1722.5C 1144.55,1715.23 1138.88,1708.23 1133,1701.5C 1130.95,1696.71 1127.95,1692.71 1124,1689.5C 1114.58,1673.67 1107.08,1657 1101.5,1639.5C 1101.35,1638.45 1101.52,1637.45 1102,1636.5C 1117.04,1621.63 1131.87,1606.63 1146.5,1591.5C 1211.23,1609.86 1268.23,1596.36 1317.5,1551C 1363.27,1501.7 1376.93,1444.53 1358.5,1379.5C 1373.3,1365.2 1387.97,1350.7 1402.5,1336C 1404.47,1335.5 1406.47,1335.34 1408.5,1335.5 Z"/></g>
<g><path style="opacity:1" fill="#22565f" d="M 754.5,1335.5 C 754.5,1335.17 754.5,1334.83 754.5,1334.5C 757.542,1334.73 760.208,1335.73 762.5,1337.5C 759.779,1337.04 757.112,1336.37 754.5,1335.5 Z"/></g>
<g><path style="opacity:1" fill="#d4d5d6" d="M 1271.5,1324.5 C 1271.59,1325.5 1271.25,1326.33 1270.5,1327C 1253.23,1331.42 1236.56,1337.42 1220.5,1345C 1218.53,1345.5 1216.53,1345.66 1214.5,1345.5C 1221.13,1341.52 1228.13,1338.02 1235.5,1335C 1247.21,1330.57 1259.21,1327.07 1271.5,1324.5 Z"/></g>
<g><path style="opacity:1" fill="#265b64" d="M 1414.5,1337.5 C 1417.83,1337.83 1420.49,1339.16 1422.5,1341.5C 1419.52,1340.68 1416.85,1339.34 1414.5,1337.5 Z"/></g>
<g><path style="opacity:1" fill="#176b77" d="M 762.5,1337.5 C 765.827,1337.83 768.493,1339.16 770.5,1341.5C 767.368,1340.75 764.701,1339.42 762.5,1337.5 Z"/></g>
<g><path style="opacity:1" fill="#208493" d="M 771.5,1341.5 C 774.157,1341.93 776.491,1342.93 778.5,1344.5C 775.509,1344.83 773.176,1343.83 771.5,1341.5 Z"/></g>
<g><path style="opacity:1" fill="#368896" d="M 1423.5,1341.5 C 1426.24,1341.71 1428.57,1342.71 1430.5,1344.5C 1427.42,1344.82 1425.09,1343.82 1423.5,1341.5 Z"/></g>
<g><path style="opacity:1" fill="#5e676f" d="M 479.5,1343.5 C 477.1,1346.9 474.1,1349.57 470.5,1351.5C 472.9,1348.1 475.9,1345.43 479.5,1343.5 Z"/></g>
<g><path style="opacity:1" fill="#d1d5d7" d="M 1214.5,1345.5 C 1213.37,1348.07 1211.7,1350.24 1209.5,1352C 1203.72,1354.73 1198.05,1357.73 1192.5,1361C 1188.58,1364.92 1183.91,1367.42 1178.5,1368.5C 1180.38,1365.89 1182.71,1363.72 1185.5,1362C 1194.9,1355.97 1204.56,1350.47 1214.5,1345.5 Z"/></g>
<g><path style="opacity:1" fill="#e8f6fd" d="M 1323.5,1319.5 C 1323.5,1320.17 1323.83,1320.5 1324.5,1320.5C 1338.21,1336.58 1348.88,1354.58 1356.5,1374.5C 1281.54,1365.08 1220.71,1389.75 1174,1448.5C 1148.92,1484.08 1136.92,1523.75 1138,1567.5C 1138.6,1574.54 1139.43,1581.54 1140.5,1588.5C 1120.29,1581.4 1102.29,1570.74 1086.5,1556.5C 1086.5,1555.83 1086.17,1555.5 1085.5,1555.5C 1084.84,1553.53 1084.5,1551.36 1084.5,1549C 1085.27,1540.84 1085.93,1532.67 1086.5,1524.5C 1087.41,1522.34 1088.07,1520.01 1088.5,1517.5C 1089.75,1517.42 1090.58,1516.76 1091,1515.5C 1095.06,1494.33 1101.72,1474 1111,1454.5C 1112.08,1451.94 1112.58,1449.27 1112.5,1446.5C 1118.32,1434.69 1125.32,1423.69 1133.5,1413.5C 1135.91,1412.09 1137.58,1410.09 1138.5,1407.5C 1142.13,1402.53 1146.13,1397.87 1150.5,1393.5C 1153.17,1391.5 1155.5,1389.17 1157.5,1386.5C 1162.44,1385.4 1166.11,1382.57 1168.5,1378C 1169.83,1377.67 1171.17,1377.33 1172.5,1377C 1174.59,1374.2 1176.59,1371.37 1178.5,1368.5C 1183.91,1367.42 1188.58,1364.92 1192.5,1361C 1198.05,1357.73 1203.72,1354.73 1209.5,1352C 1211.7,1350.24 1213.37,1348.07 1214.5,1345.5C 1216.53,1345.66 1218.53,1345.5 1220.5,1345C 1236.56,1337.42 1253.23,1331.42 1270.5,1327C 1271.25,1326.33 1271.59,1325.5 1271.5,1324.5C 1273.04,1323.7 1274.71,1323.37 1276.5,1323.5C 1292.26,1321.88 1307.92,1320.55 1323.5,1319.5 Z"/></g>
<g><path style="opacity:1" fill="#41a3b3" d="M 1450.5,1355.5 C 1453.71,1357.27 1456.71,1359.27 1459.5,1361.5C 1455.22,1361.21 1452.22,1359.21 1450.5,1355.5 Z"/></g>
<g><path style="opacity:0.999" fill="#d2d2d2" d="M 1051.5,1462.5 C 1047.93,1468.2 1045.93,1474.54 1045.5,1481.5C 1044.23,1483.91 1043.57,1486.57 1043.5,1489.5C 1041.72,1494.28 1040.39,1499.28 1039.5,1504.5C 1039.55,1506.9 1039.22,1509.24 1038.5,1511.5C 1037.03,1515.92 1036.36,1520.59 1036.5,1525.5C 1036.5,1526.83 1036.5,1528.17 1036.5,1529.5C 1034.93,1537.95 1034.26,1546.62 1034.5,1555.5C 1034.66,1588.13 1039.66,1619.79 1049.5,1650.5C 1050.15,1656.46 1052.15,1661.79 1055.5,1666.5C 1094.99,1759.32 1163.66,1817.99 1261.5,1842.5C 1267.75,1845.22 1274.42,1846.55 1281.5,1846.5C 1282.26,1847.27 1283.26,1847.77 1284.5,1848C 1311.83,1851.27 1339.16,1851.27 1366.5,1848C 1367.42,1847.72 1368.08,1847.22 1368.5,1846.5C 1375.23,1846.21 1381.89,1845.38 1388.5,1844C 1390.97,1843.96 1392.97,1843.13 1394.5,1841.5C 1403.19,1838.78 1412.03,1836.11 1421,1833.5C 1429.22,1829.47 1437.72,1826.14 1446.5,1823.5C 1446.5,1824.83 1446.5,1826.17 1446.5,1827.5C 1440.94,1905.65 1428.44,1982.65 1409,2058.5C 1401.02,2087.45 1389.35,2114.78 1374,2140.5C 1370.32,2146 1366.16,2151 1361.5,2155.5C 1315.07,2205.43 1268.07,2254.93 1220.5,2304C 1184.79,2335.37 1148.79,2366.37 1112.5,2397C 1090.84,2413.64 1067.84,2428.31 1043.5,2441C 1000.86,2462.91 957.524,2464.24 913.5,2445C 885.836,2432.51 860.503,2416.51 837.5,2397C 816.092,2378.6 795.592,2359.1 776,2338.5C 733.465,2292.98 692.799,2245.98 654,2197.5C 635.94,2180.27 618.107,2162.94 600.5,2145.5C 569.36,2105.22 547.193,2060.22 534,2010.5C 527.667,1987.84 523.001,1964.84 520,1941.5C 514.519,1897.35 511.019,1853.02 509.5,1808.5C 509.335,1805.48 509.502,1802.48 510,1799.5C 546.68,1824.05 587.18,1839.72 631.5,1846.5C 635.264,1847.83 639.264,1848.67 643.5,1849C 667.203,1851.2 690.87,1850.86 714.5,1848C 715.416,1847.72 716.082,1847.22 716.5,1846.5C 724.915,1845.99 733.248,1844.82 741.5,1843C 743.744,1842.95 745.411,1842.12 746.5,1840.5C 787.716,1828.89 825.049,1809.89 858.5,1783.5C 865.062,1779.61 870.729,1774.61 875.5,1768.5C 875.5,1767.83 875.833,1767.5 876.5,1767.5C 878.1,1766.75 879.6,1765.75 881,1764.5C 885.069,1759.94 888.902,1755.27 892.5,1750.5C 900.648,1739.56 908.815,1728.56 917,1717.5C 942.986,1677.04 958.153,1632.71 962.5,1584.5C 963.904,1576.38 964.571,1568.04 964.5,1559.5C 964.499,1554.65 964.166,1549.99 963.5,1545.5C 963.5,1544.5 963.5,1543.5 963.5,1542.5C 963.844,1535.92 963.177,1529.58 961.5,1523.5C 961.745,1517.92 961.078,1512.58 959.5,1507.5C 959.5,1507.17 959.5,1506.83 959.5,1506.5C 959.118,1501.91 958.118,1497.57 956.5,1493.5C 949.568,1463.53 938.235,1435.37 922.5,1409C 924.597,1405.23 927.097,1401.73 930,1398.5C 949.311,1379.28 972.644,1369.61 1000,1369.5C 1032.34,1369.92 1058.17,1382.92 1077.5,1408.5C 1072.41,1415.44 1067.91,1422.77 1064,1430.5C 1059.73,1441.14 1055.57,1451.81 1051.5,1462.5 Z"/></g>
<g><path style="opacity:1" fill="#d1d2d3" d="M 551.5,1351.5 C 550.206,1353.91 548.539,1356.07 546.5,1358C 538.583,1362.59 531.25,1367.92 524.5,1374C 523.181,1374.19 521.847,1374.03 520.5,1373.5C 529.717,1364.62 540.05,1357.29 551.5,1351.5 Z"/></g>
<g><path style="opacity:1" fill="#fefefe" d="M 723.5,1378.5 C 725.93,1384.2 727.764,1390.2 729,1396.5C 740.5,1464.01 720.334,1519.85 668.5,1564C 616.328,1601.99 559.995,1609.49 499.5,1586.5C 495.377,1584.69 491.377,1582.69 487.5,1580.5C 485.114,1566.87 484.947,1553.21 487,1539.5C 493.38,1492.24 513.88,1452.4 548.5,1420C 599.608,1376.48 657.941,1362.65 723.5,1378.5 Z"/></g>
<g><path style="opacity:1" fill="#fefefe" d="M 1356.5,1374.5 C 1357.17,1376.17 1357.83,1377.83 1358.5,1379.5C 1376.93,1444.53 1363.27,1501.7 1317.5,1551C 1268.23,1596.36 1211.23,1609.86 1146.5,1591.5C 1144.25,1590.87 1142.25,1589.87 1140.5,1588.5C 1139.43,1581.54 1138.6,1574.54 1138,1567.5C 1136.92,1523.75 1148.92,1484.08 1174,1448.5C 1220.71,1389.75 1281.54,1365.08 1356.5,1374.5 Z"/></g>
<g><path style="opacity:1" fill="#cacbcb" d="M 1178.5,1368.5 C 1176.59,1371.37 1174.59,1374.2 1172.5,1377C 1171.17,1377.33 1169.83,1377.67 1168.5,1378C 1166.11,1382.57 1162.44,1385.4 1157.5,1386.5C 1163.91,1379.76 1170.91,1373.76 1178.5,1368.5 Z"/></g>
<g><path style="opacity:1" fill="#e18018" d="M 366.5,1378.5 C 368.222,1385.94 369.222,1393.6 369.5,1401.5C 367.778,1394.06 366.778,1386.4 366.5,1378.5 Z"/></g>
<g><path style="opacity:1" fill="#e18018" d="M 1632.5,1378.5 C 1632.22,1386.4 1631.22,1394.06 1629.5,1401.5C 1629.78,1393.6 1630.78,1385.94 1632.5,1378.5 Z"/></g>
<g><path style="opacity:1" fill="#d2d3d4" d="M 520.5,1373.5 C 512.815,1383.07 504.481,1392.23 495.5,1401C 493.113,1401.56 491.113,1402.73 489.5,1404.5C 498.167,1392.5 508.5,1382.17 520.5,1373.5 Z"/></g>
<g><path style="opacity:1" fill="#326c77" d="M 842.5,1389.5 C 845.243,1391.24 847.243,1393.57 848.5,1396.5C 845.757,1394.76 843.757,1392.43 842.5,1389.5 Z"/></g>
<g><path style="opacity:1" fill="#828282" d="M 1157.5,1386.5 C 1155.5,1389.17 1153.17,1391.5 1150.5,1393.5C 1151.83,1390.17 1154.17,1387.83 1157.5,1386.5 Z"/></g>
<g><path style="opacity:1" fill="#398390" d="M 848.5,1396.5 C 850.914,1397.91 852.581,1399.91 853.5,1402.5C 851.086,1401.09 849.419,1399.09 848.5,1396.5 Z"/></g>
<g><path style="opacity:1" fill="#888888" d="M 1138.5,1407.5 C 1137.58,1410.09 1135.91,1412.09 1133.5,1413.5C 1134.42,1410.91 1136.09,1408.91 1138.5,1407.5 Z"/></g>
<g><path style="opacity:1" fill="#cecfd0" d="M 489.5,1404.5 C 487.758,1408.5 485.758,1412.5 483.5,1416.5C 478.444,1422.89 473.777,1429.56 469.5,1436.5C 468.372,1437.26 467.205,1437.93 466,1438.5C 464.775,1442.91 462.608,1446.57 459.5,1449.5C 466.811,1432.5 476.811,1417.5 489.5,1404.5 Z"/></g>
<g><path style="opacity:1" fill="#7a3d39" d="M 413.5,1429.5 C 413.245,1431.97 412.245,1433.97 410.5,1435.5C 410.755,1433.03 411.755,1431.03 413.5,1429.5 Z"/></g>
<g><path style="opacity:1" fill="#7a3d39" d="M 1590.5,1440.5 C 1592.58,1443.05 1593.92,1446.05 1594.5,1449.5C 1592.42,1446.95 1591.08,1443.95 1590.5,1440.5 Z"/></g>
<g><path style="opacity:1" fill="#42a7b6" d="M 883.5,1445.5 C 886.201,1448.24 887.868,1451.57 888.5,1455.5C 886.032,1452.62 884.365,1449.29 883.5,1445.5 Z"/></g>
<g><path style="opacity:1" fill="#04d2fa" d="M 888.5,1455.5 C 889.315,1456.43 890.148,1457.43 891,1458.5C 894.064,1465.3 896.564,1472.3 898.5,1479.5C 899.025,1483.53 900.358,1487.2 902.5,1490.5C 904.112,1495.4 905.445,1500.4 906.5,1505.5C 906.42,1508.78 907.087,1511.78 908.5,1514.5C 908.944,1520.83 909.444,1527.17 910,1533.5C 910.278,1534.42 910.778,1535.08 911.5,1535.5C 912.373,1547.49 912.54,1559.49 912,1571.5C 910.679,1585.25 908.846,1598.91 906.5,1612.5C 905.031,1616.69 903.698,1621.02 902.5,1625.5C 899.898,1634.31 896.898,1642.97 893.5,1651.5C 890.887,1654.64 889.221,1658.31 888.5,1662.5C 887.696,1665.44 886.362,1668.11 884.5,1670.5C 881.407,1674.35 879.074,1678.68 877.5,1683.5C 875.05,1685.63 873.383,1688.3 872.5,1691.5C 868.786,1695.88 865.453,1700.55 862.5,1705.5C 860.413,1706.58 859.08,1708.25 858.5,1710.5C 857.5,1710.83 856.833,1711.5 856.5,1712.5C 854.413,1713.58 853.08,1715.25 852.5,1717.5C 851.833,1717.5 851.5,1717.83 851.5,1718.5C 848.757,1720.24 846.757,1722.57 845.5,1725.5C 840.411,1729.38 835.745,1733.71 831.5,1738.5C 829.251,1739.08 827.585,1740.41 826.5,1742.5C 819.011,1748.41 811.345,1754.08 803.5,1759.5C 798.991,1761.92 794.658,1764.59 790.5,1767.5C 787.515,1768.33 784.849,1769.66 782.5,1771.5C 774.6,1775.98 766.266,1779.81 757.5,1783C 749.982,1784.76 742.648,1787.09 735.5,1790C 729.551,1791.49 723.551,1792.66 717.5,1793.5C 712.675,1794.3 708.008,1795.3 703.5,1796.5C 701.393,1797.47 699.059,1797.8 696.5,1797.5C 684.513,1798.21 672.513,1798.54 660.5,1798.5C 660.167,1798.5 659.833,1798.5 659.5,1798.5C 649.979,1796.93 640.312,1795.6 630.5,1794.5C 607.811,1789.94 586.144,1782.6 565.5,1772.5C 569.484,1773.67 573.484,1774.51 577.5,1775C 681.253,1670.91 785.419,1567.08 890,1463.5C 889.842,1460.82 889.342,1458.15 888.5,1455.5 Z"/></g>
<g><path style="opacity:1" fill="#878b8f" d="M 1051.5,1462.5 C 1049.72,1469.02 1047.72,1475.35 1045.5,1481.5C 1045.93,1474.54 1047.93,1468.2 1051.5,1462.5 Z"/></g>
<g><path style="opacity:1" fill="#03d2fa" d="M 1538.5,1451.5 C 1540.23,1453.94 1541.73,1456.61 1543,1459.5C 1547.49,1471.13 1551.65,1482.8 1555.5,1494.5C 1555.17,1497.23 1555.84,1499.56 1557.5,1501.5C 1557.87,1506.42 1558.87,1511.09 1560.5,1515.5C 1560.66,1522.42 1561.66,1529.09 1563.5,1535.5C 1563.19,1539.04 1563.52,1542.38 1564.5,1545.5C 1564.51,1557.85 1564.18,1570.18 1563.5,1582.5C 1562.54,1584.26 1562.21,1586.26 1562.5,1588.5C 1559.16,1600.21 1556.5,1612.21 1554.5,1624.5C 1554.57,1625.96 1554.23,1627.29 1553.5,1628.5C 1551.72,1631.5 1550.72,1634.84 1550.5,1638.5C 1549.46,1641.34 1548.13,1644.01 1546.5,1646.5C 1544.55,1651.35 1542.22,1656.01 1539.5,1660.5C 1538.53,1662.4 1538.2,1664.4 1538.5,1666.5C 1537.33,1667.51 1536.66,1668.85 1536.5,1670.5C 1534.41,1672.34 1533.08,1674.67 1532.5,1677.5C 1531.66,1677.84 1531.33,1678.51 1531.5,1679.5C 1529.34,1681.82 1527.67,1684.49 1526.5,1687.5C 1525.92,1689.41 1524.92,1691.08 1523.5,1692.5C 1521.1,1694.3 1519.43,1696.63 1518.5,1699.5C 1516.1,1701.3 1514.43,1703.63 1513.5,1706.5C 1511.47,1707.54 1510.14,1709.21 1509.5,1711.5C 1506.48,1713.52 1504.15,1716.19 1502.5,1719.5C 1496.83,1724.5 1491.5,1729.83 1486.5,1735.5C 1483.22,1737.12 1480.55,1739.45 1478.5,1742.5C 1474.95,1744.11 1471.95,1746.44 1469.5,1749.5C 1466.11,1750.53 1463.44,1752.53 1461.5,1755.5C 1460.23,1757.05 1458.57,1758.05 1456.5,1758.5C 1454.12,1759.35 1452.12,1760.68 1450.5,1762.5C 1447.97,1763.6 1445.64,1764.93 1443.5,1766.5C 1441,1767.58 1438.66,1768.92 1436.5,1770.5C 1415.78,1781.51 1393.78,1789.18 1370.5,1793.5C 1363.01,1794.64 1355.68,1795.97 1348.5,1797.5C 1336.18,1798.18 1323.85,1798.51 1311.5,1798.5C 1305.7,1797.32 1299.7,1796.65 1293.5,1796.5C 1289.28,1795.4 1284.95,1794.4 1280.5,1793.5C 1264.13,1790.82 1248.46,1786.15 1233.5,1779.5C 1231.64,1777.99 1229.64,1776.65 1227.5,1775.5C 1332.42,1672.08 1436.92,1568.08 1541,1463.5C 1540.51,1459.48 1539.67,1455.48 1538.5,1451.5 Z"/></g>
<g><path style="opacity:1" fill="#9a4333" d="M 398.5,1465.5 C 396.794,1471.69 394.794,1477.69 392.5,1483.5C 393.526,1477.73 395.026,1472.06 397,1466.5C 397.383,1465.94 397.883,1465.61 398.5,1465.5 Z"/></g>
<g><path style="opacity:1" fill="#c5c5c5" d="M 453.5,1462.5 C 453.663,1464.86 453.497,1467.19 453,1469.5C 449.275,1475.62 446.108,1481.95 443.5,1488.5C 445.086,1479.06 448.419,1470.4 453.5,1462.5 Z"/></g>
<g><path style="opacity:1" fill="#9a4433" d="M 1602.5,1472.5 C 1604.4,1474.27 1605.56,1476.6 1606,1479.5C 1607.81,1485.39 1608.97,1491.39 1609.5,1497.5C 1607.31,1489.24 1604.97,1480.9 1602.5,1472.5 Z"/></g>
<g><path style="opacity:1" fill="#386e7f" d="M 898.5,1479.5 C 900.601,1482.8 901.935,1486.46 902.5,1490.5C 900.358,1487.2 899.025,1483.53 898.5,1479.5 Z"/></g>
<g><path style="opacity:1" fill="#636b73" d="M 1043.5,1489.5 C 1042.99,1494.21 1042.16,1498.88 1041,1503.5C 1040.62,1504.06 1040.12,1504.39 1039.5,1504.5C 1040.39,1499.28 1041.72,1494.28 1043.5,1489.5 Z"/></g>
<g><path style="opacity:1" fill="#d3d4d4" d="M 1112.5,1446.5 C 1112.58,1449.27 1112.08,1451.94 1111,1454.5C 1101.72,1474 1095.06,1494.33 1091,1515.5C 1090.58,1516.76 1089.75,1517.42 1088.5,1517.5C 1088.5,1516.83 1088.5,1516.17 1088.5,1515.5C 1092.58,1490.92 1100.58,1467.92 1112.5,1446.5 Z"/></g>
<g><path style="opacity:1" fill="#763c3a" d="M 392.5,1485.5 C 391.621,1491.08 390.288,1496.41 388.5,1501.5C 388.776,1495.79 390.11,1490.45 392.5,1485.5 Z"/></g>
<g><path style="opacity:1" fill="#737a7f" d="M 956.5,1493.5 C 958.118,1497.57 959.118,1501.91 959.5,1506.5C 957.627,1502.48 956.627,1498.15 956.5,1493.5 Z"/></g>
<g><path style="opacity:1" fill="#305767" d="M 1555.5,1494.5 C 1556.92,1496.51 1557.59,1498.85 1557.5,1501.5C 1555.84,1499.56 1555.17,1497.23 1555.5,1494.5 Z"/></g>
<g><path style="opacity:1" fill="#8d4136" d="M 388.5,1502.5 C 387.687,1510.38 386.353,1518.05 384.5,1525.5C 384.666,1517.5 385.999,1509.83 388.5,1502.5 Z"/></g>
<g><path style="opacity:1" fill="#2b5462" d="M 906.5,1505.5 C 907.913,1508.22 908.58,1511.22 908.5,1514.5C 907.087,1511.78 906.42,1508.78 906.5,1505.5 Z"/></g>
<g><path style="opacity:1" fill="#773d3a" d="M 1609.5,1497.5 C 1611.5,1503.21 1612.5,1509.21 1612.5,1515.5C 1610.58,1509.78 1609.58,1503.78 1609.5,1497.5 Z"/></g>
<g><path style="opacity:1" fill="#5e676f" d="M 959.5,1507.5 C 961.078,1512.58 961.745,1517.92 961.5,1523.5C 960.194,1518.38 959.527,1513.05 959.5,1507.5 Z"/></g>
<g><path style="opacity:1" fill="#7d8287" d="M 1038.5,1511.5 C 1038.64,1516.41 1037.97,1521.08 1036.5,1525.5C 1036.36,1520.59 1037.03,1515.92 1038.5,1511.5 Z"/></g>
<g><path style="opacity:1" fill="#626262" d="M 1088.5,1515.5 C 1088.5,1516.17 1088.5,1516.83 1088.5,1517.5C 1088.07,1520.01 1087.41,1522.34 1086.5,1524.5C 1086.07,1521.12 1086.73,1518.12 1088.5,1515.5 Z"/></g>
<g><path style="opacity:1" fill="#315e6f" d="M 1560.5,1515.5 C 1562.34,1521.91 1563.34,1528.58 1563.5,1535.5C 1561.66,1529.09 1560.66,1522.42 1560.5,1515.5 Z"/></g>
<g><path style="opacity:1" fill="#3f8da3" d="M 908.5,1514.5 C 910.322,1521.25 911.322,1528.25 911.5,1535.5C 910.778,1535.08 910.278,1534.42 910,1533.5C 909.444,1527.17 908.944,1520.83 908.5,1514.5 Z"/></g>
<g><path style="opacity:1" fill="#636b73" d="M 961.5,1523.5 C 963.177,1529.58 963.844,1535.92 963.5,1542.5C 962.457,1536.35 961.79,1530.02 961.5,1523.5 Z"/></g>
<g><path style="opacity:1" fill="#0ed2f9" d="M 435.5,1539.5 C 450.486,1556.15 467.82,1569.82 487.5,1580.5C 491.377,1582.69 495.377,1584.69 499.5,1586.5C 482.981,1603.52 466.314,1620.35 449.5,1637C 450.554,1639.38 451.221,1641.88 451.5,1644.5C 447.033,1634.1 443.367,1623.43 440.5,1612.5C 438.259,1598.91 436.425,1585.24 435,1571.5C 434.39,1560.82 434.556,1550.15 435.5,1539.5 Z"/></g>
<g><path style="opacity:1" fill="#4e5a64" d="M 1036.5,1529.5 C 1036.91,1538.4 1036.25,1547.07 1034.5,1555.5C 1034.26,1546.62 1034.93,1537.95 1036.5,1529.5 Z"/></g>
<g><path style="opacity:1" fill="#813e38" d="M 1612.5,1515.5 C 1614.7,1523.55 1615.87,1531.88 1616,1540.5C 1616.83,1553.67 1616.66,1566.67 1615.5,1579.5C 1615.91,1558.09 1614.91,1536.75 1612.5,1515.5 Z"/></g>
<g><path style="opacity:1" fill="#723c3b" d="M 384.5,1527.5 C 383.875,1544.16 383.542,1560.83 383.5,1577.5C 382.834,1571.51 382.5,1565.34 382.5,1559C 382.401,1548.3 383.067,1537.8 384.5,1527.5 Z"/></g>
<g><path style="opacity:1" fill="#305463" d="M 1564.5,1545.5 C 1565.17,1549.82 1565.5,1554.32 1565.5,1559C 1565.59,1567.05 1564.92,1574.88 1563.5,1582.5C 1564.18,1570.18 1564.51,1557.85 1564.5,1545.5 Z"/></g>
<g><path style="opacity:1" fill="#0fd2f9" d="M 1086.5,1556.5 C 1102.29,1570.74 1120.29,1581.4 1140.5,1588.5C 1142.25,1589.87 1144.25,1590.87 1146.5,1591.5C 1131.87,1606.63 1117.04,1621.63 1102,1636.5C 1101.52,1637.45 1101.35,1638.45 1101.5,1639.5C 1099.89,1636.61 1098.55,1633.61 1097.5,1630.5C 1096.36,1624.26 1094.69,1618.26 1092.5,1612.5C 1090.75,1607.43 1089.75,1602.09 1089.5,1596.5C 1087.9,1583.21 1086.9,1569.88 1086.5,1556.5 Z"/></g>
<g><path style="opacity:0.934" fill="#000000" d="M 43.5,1568.5 C 53.7471,1576.81 63.4138,1585.81 72.5,1595.5C 51.9339,1598.48 31.2672,1599.65 10.5,1599C 22.5979,1590.07 33.5979,1579.9 43.5,1568.5 Z"/></g>
<g><path style="opacity:1" fill="#386f80" d="M 911.5,1535.5 C 914.958,1561.47 913.291,1587.14 906.5,1612.5C 908.846,1598.91 910.679,1585.25 912,1571.5C 912.54,1559.49 912.373,1547.49 911.5,1535.5 Z"/></g>
<g><path style="opacity:1" fill="#4f5a63" d="M 963.5,1545.5 C 964.166,1549.99 964.499,1554.65 964.5,1559.5C 964.571,1568.04 963.904,1576.38 962.5,1584.5C 962.928,1571.5 963.262,1558.5 963.5,1545.5 Z"/></g>
<g><path style="opacity:1" fill="#40859a" d="M 1085.5,1555.5 C 1086.17,1555.5 1086.5,1555.83 1086.5,1556.5C 1086.9,1569.88 1087.9,1583.21 1089.5,1596.5C 1086.74,1583.12 1085.4,1569.45 1085.5,1555.5 Z"/></g>
<g><path style="opacity:1" fill="#376374" d="M 434.5,1538.5 C 435.167,1538.5 435.5,1538.83 435.5,1539.5C 434.556,1550.15 434.39,1560.82 435,1571.5C 436.425,1585.24 438.259,1598.91 440.5,1612.5C 434.283,1588.31 432.283,1563.64 434.5,1538.5 Z"/></g>
<g><path style="opacity:1" fill="#904135" d="M 383.5,1584.5 C 385.211,1588.88 385.877,1593.55 385.5,1598.5C 384.028,1594.08 383.362,1589.41 383.5,1584.5 Z"/></g>
<g><path style="opacity:1" fill="#723c3b" d="M 385.5,1598.5 C 387.136,1602.21 387.802,1606.21 387.5,1610.5C 386.383,1606.71 385.717,1602.71 385.5,1598.5 Z"/></g>
<g><path style="opacity:1" fill="#3f8ca6" d="M 1562.5,1588.5 C 1562.25,1593.52 1561.75,1598.52 1561,1603.5C 1558.52,1608.88 1557.19,1614.55 1557,1620.5C 1556.39,1622.07 1555.56,1623.4 1554.5,1624.5C 1556.5,1612.21 1559.16,1600.21 1562.5,1588.5 Z"/></g>
<g><path style="opacity:1" fill="#823f38" d="M 1612.5,1602.5 C 1612.77,1608.22 1611.77,1613.55 1609.5,1618.5C 1610.09,1612.96 1611.09,1607.63 1612.5,1602.5 Z"/></g>
<g><path style="opacity:1" fill="#305f6d" d="M 906.5,1612.5 C 906.534,1617.4 905.2,1621.73 902.5,1625.5C 903.698,1621.02 905.031,1616.69 906.5,1612.5 Z"/></g>
<g><path style="opacity:1" fill="#6d3a3c" d="M 387.5,1610.5 C 388.768,1612.91 389.435,1615.57 389.5,1618.5C 387.96,1616.16 387.294,1613.5 387.5,1610.5 Z"/></g>
<g><path style="opacity:1" fill="#396e7f" d="M 1092.5,1612.5 C 1094.69,1618.26 1096.36,1624.26 1097.5,1630.5C 1094.65,1624.93 1092.98,1618.93 1092.5,1612.5 Z"/></g>
<g><path style="opacity:1" fill="#376072" d="M 1553.5,1628.5 C 1553.28,1632.16 1552.28,1635.5 1550.5,1638.5C 1550.72,1634.84 1551.72,1631.5 1553.5,1628.5 Z"/></g>
<g><path style="opacity:0.975" fill="#000000" d="M 118.5,1638.5 C 140.495,1658.49 162.161,1678.83 183.5,1699.5C 177.714,1704.77 171.047,1708.6 163.5,1711C 114.176,1725.1 64.1761,1728.43 13.5,1721C 49.2564,1694.46 84.2564,1666.96 118.5,1638.5 Z"/></g>
<g><path style="opacity:1" fill="#4793aa" d="M 893.5,1651.5 C 892.573,1655.61 890.907,1659.28 888.5,1662.5C 889.221,1658.31 890.887,1654.64 893.5,1651.5 Z"/></g>
<g><path style="opacity:1" fill="#8b8f93" d="M 1049.5,1650.5 C 1052.01,1655.55 1054.01,1660.88 1055.5,1666.5C 1052.15,1661.79 1050.15,1656.46 1049.5,1650.5 Z"/></g>
<g><path style="opacity:1" fill="#1d91ad" d="M 1546.5,1646.5 C 1544.91,1653.66 1542.25,1660.33 1538.5,1666.5C 1538.2,1664.4 1538.53,1662.4 1539.5,1660.5C 1542.22,1656.01 1544.55,1651.35 1546.5,1646.5 Z"/></g>
<g><path style="opacity:1" fill="#00738b" d="M 1536.5,1670.5 C 1535.92,1673.33 1534.59,1675.66 1532.5,1677.5C 1533.08,1674.67 1534.41,1672.34 1536.5,1670.5 Z"/></g>
<g><path style="opacity:1" fill="#3f7586" d="M 884.5,1670.5 C 884.509,1672.31 884.009,1673.98 883,1675.5C 881.391,1678.41 879.558,1681.07 877.5,1683.5C 879.074,1678.68 881.407,1674.35 884.5,1670.5 Z"/></g>
<g><path style="opacity:1" fill="#006377" d="M 1531.5,1679.5 C 1530.83,1682.85 1529.16,1685.52 1526.5,1687.5C 1527.67,1684.49 1529.34,1681.82 1531.5,1679.5 Z"/></g>
<g><path style="opacity:1" fill="#396a7a" d="M 877.5,1683.5 C 876.617,1686.7 874.95,1689.37 872.5,1691.5C 873.383,1688.3 875.05,1685.63 877.5,1683.5 Z"/></g>
<g><path style="opacity:1" fill="#00586a" d="M 1523.5,1692.5 C 1522.57,1695.37 1520.9,1697.7 1518.5,1699.5C 1519.43,1696.63 1521.1,1694.3 1523.5,1692.5 Z"/></g>
<g><path style="opacity:1" fill="#9c4532" d="M 1581.5,1696.5 C 1581.08,1700.35 1579.42,1703.35 1576.5,1705.5C 1577.41,1702.01 1579.08,1699.01 1581.5,1696.5 Z"/></g>
<g><path style="opacity:1" fill="#345864" d="M 862.5,1705.5 C 861.92,1707.75 860.587,1709.42 858.5,1710.5C 859.08,1708.25 860.413,1706.58 862.5,1705.5 Z"/></g>
<g><path style="opacity:1" fill="#005061" d="M 1513.5,1706.5 C 1512.88,1708.75 1511.54,1710.42 1509.5,1711.5C 1510.14,1709.21 1511.47,1707.54 1513.5,1706.5 Z"/></g>
<g><path style="opacity:1" fill="#406d7c" d="M 856.5,1712.5 C 855.92,1714.75 854.587,1716.42 852.5,1717.5C 853.08,1715.25 854.413,1713.58 856.5,1712.5 Z"/></g>
<g><path style="opacity:1" fill="#005162" d="M 1509.5,1711.5 C 1507.88,1714.78 1505.55,1717.45 1502.5,1719.5C 1504.15,1716.19 1506.48,1713.52 1509.5,1711.5 Z"/></g>
<g><path style="opacity:1" fill="#703229" d="M 1572.5,1712.5 C 1571.07,1714.56 1570.4,1716.89 1570.5,1719.5C 1569.83,1719.5 1569.5,1719.17 1569.5,1718.5C 1569.02,1715.69 1570.02,1713.69 1572.5,1712.5 Z"/></g>
<g><path style="opacity:0.993" fill="#000000" d="M 429.5,1718.5 C 450.365,1750.03 476.365,1776.7 507.5,1798.5C 508.167,1801.98 508.834,1805.31 509.5,1808.5C 511.019,1853.02 514.519,1897.35 520,1941.5C 523.001,1964.84 527.667,1987.84 534,2010.5C 547.193,2060.22 569.36,2105.22 600.5,2145.5C 572.467,2132.16 546.8,2115.33 523.5,2095C 507.333,2078.17 491.167,2061.33 475,2044.5C 475.76,2060.15 476.093,2075.82 476,2091.5C 475.667,2093.5 475.333,2095.5 475,2097.5C 474.653,2099.18 473.653,2100.18 472,2100.5C 465.899,2096.74 460.066,2092.57 454.5,2088C 424.541,2059.88 400.041,2027.71 381,1991.5C 346.211,1921.63 320.044,1848.63 302.5,1772.5C 323.167,1771.83 343.833,1771.17 364.5,1770.5C 372.524,1769.74 380.191,1767.58 387.5,1764C 404.91,1751.77 418.91,1736.6 429.5,1718.5 Z"/></g>
<g><path style="opacity:0.993" fill="#000000" d="M 1569.5,1718.5 C 1569.5,1719.17 1569.83,1719.5 1570.5,1719.5C 1573.66,1724.47 1576.82,1729.47 1580,1734.5C 1591.75,1751.26 1607.25,1763.09 1626.5,1770C 1662.47,1771.45 1698.47,1771.95 1734.5,1771.5C 1736.2,1771.66 1737.87,1771.49 1739.5,1771C 1744.86,1765.68 1750.52,1760.84 1756.5,1756.5C 1746.02,1793.44 1732.85,1829.44 1717,1864.5C 1690.72,1924.05 1661.56,1982.05 1629.5,2038.5C 1628.83,2039.83 1628.17,2039.83 1627.5,2038.5C 1626.04,2035.62 1624.87,2032.62 1624,2029.5C 1620.82,2013.95 1616.82,1998.62 1612,1983.5C 1611.33,1982.17 1610.67,1982.17 1610,1983.5C 1609,1985.5 1608,1987.5 1607,1989.5C 1606,1987.17 1605,1984.83 1604,1982.5C 1595.67,1998.5 1587.33,2014.5 1579,2030.5C 1557,2063.17 1530.17,2091.34 1498.5,2115C 1495.97,2116.93 1493.3,2118.27 1490.5,2119C 1493.42,2098.05 1497.26,2077.22 1502,2056.5C 1502.83,2049.81 1502.66,2043.14 1501.5,2036.5C 1499.54,2037.75 1498.04,2039.41 1497,2041.5C 1496.78,2040.06 1496.28,2038.73 1495.5,2037.5C 1487.98,2042.55 1484.14,2049.55 1484,2058.5C 1460.32,2094.18 1430.15,2123.02 1393.5,2145C 1386.83,2148.33 1380.17,2151.67 1373.5,2155C 1369.51,2155.5 1365.51,2155.67 1361.5,2155.5C 1366.16,2151 1370.32,2146 1374,2140.5C 1389.35,2114.78 1401.02,2087.45 1409,2058.5C 1428.44,1982.65 1440.94,1905.65 1446.5,1827.5C 1447.16,1826.28 1447.83,1824.95 1448.5,1823.5C 1452.93,1820.62 1457.6,1818.29 1462.5,1816.5C 1505.82,1792.18 1541.49,1759.51 1569.5,1718.5 Z"/></g>
<g><path style="opacity:1" fill="#385e6b" d="M 851.5,1718.5 C 850.243,1721.43 848.243,1723.76 845.5,1725.5C 846.757,1722.57 848.757,1720.24 851.5,1718.5 Z"/></g>
<g><path style="opacity:1" fill="#348b9a" d="M 502.5,1726.5 C 506.41,1728.74 509.743,1731.74 512.5,1735.5C 508.564,1733.23 505.231,1730.23 502.5,1726.5 Z"/></g>
<g><path style="opacity:1" fill="#3f8d9c" d="M 1157.5,1729.5 C 1160.76,1731.09 1163.43,1733.43 1165.5,1736.5C 1162.24,1734.91 1159.57,1732.57 1157.5,1729.5 Z"/></g>
<g><path style="opacity:1" fill="#004a5a" d="M 1502.5,1719.5 C 1498.17,1725.83 1492.83,1731.17 1486.5,1735.5C 1491.5,1729.83 1496.83,1724.5 1502.5,1719.5 Z"/></g>
<g><path style="opacity:1" fill="#3b8492" d="M 514.5,1737.5 C 517.089,1738.42 519.089,1740.09 520.5,1742.5C 517.911,1741.58 515.911,1739.91 514.5,1737.5 Z"/></g>
<g><path style="opacity:1" fill="#3a6371" d="M 831.5,1738.5 C 830.415,1740.59 828.749,1741.92 826.5,1742.5C 827.585,1740.41 829.251,1739.08 831.5,1738.5 Z"/></g>
<g><path style="opacity:1" fill="#3c8b99" d="M 520.5,1742.5 C 522.749,1743.08 524.415,1744.41 525.5,1746.5C 523.251,1745.92 521.585,1744.59 520.5,1742.5 Z"/></g>
<g><path style="opacity:1" fill="#005769" d="M 1478.5,1742.5 C 1476.05,1745.56 1473.05,1747.89 1469.5,1749.5C 1471.95,1746.44 1474.95,1744.11 1478.5,1742.5 Z"/></g>
<g><path style="opacity:1" fill="#005b6d" d="M 1469.5,1749.5 C 1467.2,1751.98 1464.53,1753.98 1461.5,1755.5C 1463.44,1752.53 1466.11,1750.53 1469.5,1749.5 Z"/></g>
<g><path style="opacity:1" fill="#43a6b6" d="M 542.5,1759.5 C 547.075,1759.45 550.408,1761.45 552.5,1765.5C 549.403,1763.06 546.07,1761.06 542.5,1759.5 Z"/></g>
<g><path style="opacity:1" fill="#8b9094" d="M 892.5,1750.5 C 888.902,1755.27 885.069,1759.94 881,1764.5C 879.6,1765.75 878.1,1766.75 876.5,1767.5C 881.101,1761.23 886.434,1755.56 892.5,1750.5 Z"/></g>
<g><path style="opacity:1" fill="#275d6d" d="M 1456.5,1758.5 C 1455.27,1760.8 1453.27,1762.13 1450.5,1762.5C 1452.12,1760.68 1454.12,1759.35 1456.5,1758.5 Z"/></g>
<g><path style="opacity:1" fill="#35616f" d="M 803.5,1759.5 C 800.012,1763.42 795.679,1766.08 790.5,1767.5C 794.658,1764.59 798.991,1761.92 803.5,1759.5 Z"/></g>
<g><path style="opacity:1" fill="#2e5561" d="M 1450.5,1762.5 C 1449.02,1765.08 1446.68,1766.42 1443.5,1766.5C 1445.64,1764.93 1447.97,1763.6 1450.5,1762.5 Z"/></g>
<g><path style="opacity:1" fill="#335c69" d="M 1443.5,1766.5 C 1441.95,1769.11 1439.61,1770.45 1436.5,1770.5C 1438.66,1768.92 1441,1767.58 1443.5,1766.5 Z"/></g>
<g><path style="opacity:1" fill="#376776" d="M 790.5,1767.5 C 788.421,1769.87 785.754,1771.21 782.5,1771.5C 784.849,1769.66 787.515,1768.33 790.5,1767.5 Z"/></g>
<g><path style="opacity:1" fill="#a73f19" d="M 364.5,1770.5 C 343.833,1771.17 323.167,1771.83 302.5,1772.5C 302.167,1772.5 301.833,1772.5 301.5,1772.5C 322.14,1770.51 343.14,1769.84 364.5,1770.5 Z"/></g>
<g><path style="opacity:1" fill="#93979a" d="M 875.5,1768.5 C 870.729,1774.61 865.062,1779.61 858.5,1783.5C 863.864,1778.13 869.531,1773.13 875.5,1768.5 Z"/></g>
<g><path style="opacity:1" fill="#4392a5" d="M 1221.5,1774.5 C 1223.56,1774.52 1225.56,1774.85 1227.5,1775.5C 1229.64,1776.65 1231.64,1777.99 1233.5,1779.5C 1229.1,1778.59 1225.1,1776.93 1221.5,1774.5 Z"/></g>
<g><path style="opacity:1" fill="#244652" d="M 1280.5,1793.5 C 1284.95,1794.4 1289.28,1795.4 1293.5,1796.5C 1290.13,1796.54 1286.8,1796.21 1283.5,1795.5C 1281.97,1795.36 1280.97,1794.69 1280.5,1793.5 Z"/></g>
<g><path style="opacity:1" fill="#2f5a67" d="M 717.5,1793.5 C 717.389,1794.12 717.056,1794.62 716.5,1795C 712.23,1796.08 707.897,1796.58 703.5,1796.5C 708.008,1795.3 712.675,1794.3 717.5,1793.5 Z"/></g>
<g><path style="opacity:1" fill="#2b525e" d="M 1370.5,1793.5 C 1370.39,1794.12 1370.06,1794.62 1369.5,1795C 1362.55,1796.35 1355.55,1797.18 1348.5,1797.5C 1355.68,1795.97 1363.01,1794.64 1370.5,1793.5 Z"/></g>
<g><path style="opacity:1" fill="#2b5764" d="M 630.5,1794.5 C 640.312,1795.6 649.979,1796.93 659.5,1798.5C 649.533,1798.38 639.866,1797.05 630.5,1794.5 Z"/></g>
<g><path style="opacity:1" fill="#22444f" d="M 696.5,1797.5 C 689.047,1798.91 681.381,1799.58 673.5,1799.5C 668.987,1799.5 664.653,1799.17 660.5,1798.5C 672.513,1798.54 684.513,1798.21 696.5,1797.5 Z"/></g>
<g><path style="opacity:1" fill="#234752" d="M 1348.5,1797.5 C 1336.2,1799.55 1323.87,1799.88 1311.5,1798.5C 1323.85,1798.51 1336.18,1798.18 1348.5,1797.5 Z"/></g>
<g><path style="opacity:1" fill="#9a9da0" d="M 746.5,1840.5 C 745.411,1842.12 743.744,1842.95 741.5,1843C 733.248,1844.82 724.915,1845.99 716.5,1846.5C 726.356,1844.4 736.356,1842.4 746.5,1840.5 Z"/></g>
<g><path style="opacity:1" fill="#8b8f93" d="M 1261.5,1842.5 C 1268.31,1843.73 1274.98,1845.06 1281.5,1846.5C 1274.42,1846.55 1267.75,1845.22 1261.5,1842.5 Z"/></g>
<g><path style="opacity:1" fill="#979a9d" d="M 1394.5,1841.5 C 1392.97,1843.13 1390.97,1843.96 1388.5,1844C 1381.89,1845.38 1375.23,1846.21 1368.5,1846.5C 1377,1844.6 1385.66,1842.93 1394.5,1841.5 Z"/></g>
<g><path style="opacity:1" fill="#8f9397" d="M 631.5,1846.5 C 645.618,1848.09 659.784,1849.09 674,1849.5C 688.198,1848.89 702.365,1847.89 716.5,1846.5C 716.082,1847.22 715.416,1847.72 714.5,1848C 690.87,1850.86 667.203,1851.2 643.5,1849C 639.264,1848.67 635.264,1847.83 631.5,1846.5 Z"/></g>
<g><path style="opacity:1" fill="#8d9195" d="M 1281.5,1846.5 C 1294.64,1847.83 1307.8,1848.83 1321,1849.5C 1336.87,1848.92 1352.7,1847.92 1368.5,1846.5C 1368.08,1847.22 1367.42,1847.72 1366.5,1848C 1339.16,1851.27 1311.83,1851.27 1284.5,1848C 1283.26,1847.77 1282.26,1847.27 1281.5,1846.5 Z"/></g>
</svg>
